<svg width="17" height="12" viewBox="0 0 17 12" fill="none" xmlns="http://www.w3.org/2000/svg">
<path fill-rule="evenodd" clip-rule="evenodd" d="M13.9135 1.28033C14.2064 0.987435 14.2064 0.512565 13.9135 0.219668C13.6206 -0.0732225 13.1457 -0.0732225 12.8529 0.219668L9.65718 3.41536C9.21055 3.15145 8.68953 3 8.13318 3C6.47632 3 5.13318 4.34314 5.13318 6C5.13318 6.55635 5.28463 7.07737 5.54854 7.524L2.35285 10.7197C2.05996 11.0126 2.05996 11.4874 2.35285 11.7803C2.64574 12.0732 3.12061 12.0732 3.41351 11.7803L6.6092 8.58465C7.0558 8.84858 7.57683 9 8.13318 9C9.79 9 11.1332 7.65683 11.1332 6C11.1332 5.44365 10.9818 4.92262 10.7178 4.47602L13.9135 1.28033ZM8.52168 4.55078C8.39778 4.5177 8.26758 4.5 8.13318 4.5C7.30473 4.5 6.63318 5.17155 6.63318 6C6.63318 6.1344 6.65088 6.2646 6.68395 6.3885L8.52168 4.55078ZM7.74468 7.44922L9.5824 5.6115C9.61548 5.7354 9.63318 5.8656 9.63318 6C9.63318 6.82845 8.96163 7.5 8.13318 7.5C7.99878 7.5 7.86858 7.4823 7.74468 7.44922ZM10.957 0.615525C10.1047 0.240368 9.1588 0 8.13318 0C5.99383 0 4.20106 1.04597 2.88177 2.17946C1.55769 3.31707 0.638856 4.6032 0.231081 5.22735C-0.0770269 5.69888 -0.0770269 6.30112 0.231081 6.77265C0.575248 7.29945 1.28347 8.29777 2.29213 9.28042L3.35287 8.2197C2.4748 7.36718 1.84176 6.48983 1.51819 6C1.90098 5.42055 2.71692 4.29869 3.85928 3.31721C5.03869 2.30389 6.49498 1.5 8.13318 1.5C8.7121 1.5 9.2683 1.60039 9.79765 1.77494L10.957 0.615525ZM8.13318 10.5C7.55433 10.5 6.99813 10.3996 6.4688 10.225L5.3094 11.3845C6.1617 11.7596 7.10763 12 8.13318 12C10.2726 12 12.0654 10.9541 13.3847 9.82058C14.7087 8.6829 15.6276 7.3968 16.0353 6.77265C16.3434 6.30112 16.3434 5.69888 16.0353 5.22735C15.6912 4.70055 14.9829 3.7022 13.9743 2.71958L12.9135 3.78032C13.7916 4.63283 14.4247 5.51017 14.7483 6C14.3655 6.57945 13.5495 7.7013 12.4071 8.68282C11.2278 9.69615 9.7714 10.5 8.13318 10.5Z" fill="#697077"/>
</svg>
