<svg width="494" height="94" viewBox="0 0 494 94" fill="none" xmlns="http://www.w3.org/2000/svg">
<g clip-path="url(#clip0_1_423)">
<path d="M132.409 59.1358H106.183C106.895 64.4664 111.197 68.9796 118.416 68.9796C121.318 68.9116 124.166 68.1759 126.737 66.8296C127.442 66.4638 128.228 66.28 129.022 66.2949C129.816 66.3099 130.594 66.523 131.285 66.915C131.976 67.307 132.558 67.8654 132.977 68.5394C133.397 69.2134 133.642 69.9816 133.689 70.7742C133.689 75.7849 122.861 77.8815 117.225 77.8815C104.281 77.8815 94.5199 69.175 94.5199 55.5466C94.4346 52.7089 94.9097 49.8822 95.9181 47.2281C96.9265 44.574 98.4484 42.1445 100.397 40.0785C102.345 38.0125 104.682 36.3505 107.274 35.1875C109.865 34.0245 112.661 33.3833 115.5 33.3005H116.514C120.941 33.1954 125.281 34.5395 128.873 37.1283C132.465 39.717 135.111 43.4083 136.409 47.6397C137.136 49.7108 137.55 51.8787 137.636 54.0718C137.608 55.4339 137.043 56.7298 136.064 57.6781C135.086 58.6263 133.772 59.1502 132.409 59.1358ZM116.407 42.167C113.783 42.0906 111.23 43.0258 109.277 44.779C107.324 46.5321 106.121 48.9688 105.917 51.5843H126.968C126.916 50.2912 126.608 49.0212 126.064 47.8469C125.52 46.6727 124.749 45.6171 123.796 44.7408C122.843 43.8645 121.727 43.1845 120.511 42.7398C119.295 42.2951 118.003 42.0944 116.709 42.1492L116.407 42.167Z" fill="white"/>
<path d="M169.871 77.8105C167.327 77.8271 164.815 77.2474 162.536 76.118C160.258 74.9886 158.276 73.3409 156.749 71.3072V88.0273C156.749 89.507 156.161 90.9262 155.114 91.9725C154.067 93.0188 152.647 93.6066 151.166 93.6066C149.686 93.6066 148.266 93.0188 147.219 91.9725C146.172 90.9262 145.584 89.507 145.584 88.0273V39.1997C145.607 37.7324 146.212 36.3343 147.265 35.3118C148.318 34.2893 149.734 33.7258 151.202 33.7448C152.647 33.7541 154.03 34.3318 155.051 35.3528C156.073 36.3737 156.651 37.7558 156.66 39.1997V39.5906C158.204 37.5815 160.191 35.9568 162.468 34.8439C164.744 33.7311 167.248 33.1602 169.782 33.1762C180.699 33.1762 188.611 41.2608 188.611 55.4223C188.611 69.5837 180.788 77.8105 169.871 77.8105ZM166.315 43.162C164.453 43.2014 162.624 43.6576 160.963 44.4971C159.301 45.3366 157.849 46.538 156.714 48.0128V63.0449C157.868 64.4995 159.324 65.6865 160.981 66.5239C162.639 67.3614 164.459 67.8294 166.315 67.8957C172.733 67.8957 176.983 62.8672 176.983 55.4578C176.983 48.0484 172.769 43.1443 166.35 43.1443L166.315 43.162Z" fill="white"/>
<path d="M212.525 77.8105C206.995 77.8105 198.105 76.0337 195.474 72.1957C194.951 71.5122 194.67 70.6749 194.674 69.8147C194.697 68.5872 195.195 67.4162 196.063 66.5481C196.932 65.6799 198.104 65.1822 199.332 65.1594C200.138 65.142 200.933 65.3513 201.626 65.7635C205.103 67.8291 209.035 69.0069 213.076 69.1928C217.912 69.1928 220.188 67.256 220.188 64.6263C220.188 57.5189 194.923 63.2937 194.923 46.5914C194.923 39.484 201.164 33.2295 212.347 33.2295C217.894 33.2295 225.469 35.0063 227.833 38.4179C228.295 39.0535 228.543 39.8183 228.544 40.6034C228.514 41.3512 228.294 42.079 227.904 42.7181C227.515 43.3573 226.968 43.8867 226.317 44.2565C225.666 44.6263 224.932 44.8243 224.183 44.8317C223.434 44.8392 222.695 44.6559 222.037 44.2992C219.109 42.6407 215.802 41.7656 212.436 41.7583C208.382 41.7583 205.751 43.5352 205.751 45.9695C205.751 52.3128 230.927 47.0356 230.927 64.1821C230.927 71.9291 224.331 77.8105 212.525 77.8105Z" fill="white"/>
<path d="M251.196 23.0126C251.231 24.3407 250.87 25.6492 250.159 26.7718C249.449 27.8945 248.42 28.7805 247.204 29.3173C245.988 29.854 244.639 30.0173 243.33 29.7864C242.021 29.5554 240.81 28.9407 239.851 28.0203C238.893 27.0998 238.23 25.9153 237.946 24.6173C237.663 23.3193 237.772 21.9664 238.26 20.7306C238.748 19.4949 239.593 18.432 240.687 17.6772C241.781 16.9224 243.075 16.5097 244.404 16.4916C245.275 16.4703 246.142 16.6208 246.955 16.9344C247.767 17.248 248.51 17.7185 249.141 18.3191C249.772 18.9198 250.278 19.6387 250.63 20.4349C250.983 21.2311 251.175 22.0889 251.196 22.9593V23.0126ZM244.493 77.2952C243.768 77.2975 243.049 77.1568 242.378 76.881C241.708 76.6052 241.098 76.1999 240.584 75.6882C240.07 75.1764 239.663 74.5684 239.385 73.899C239.107 73.2295 238.963 72.5118 238.963 71.787V39.1997C238.987 37.7324 239.591 36.3343 240.645 35.3118C241.698 34.2893 243.114 33.7258 244.582 33.7448H244.689C246.133 33.7495 247.517 34.3262 248.537 35.3487C249.557 36.3712 250.129 37.756 250.129 39.1997V71.7514C250.129 73.2187 249.547 74.626 248.511 75.6652C247.474 76.7043 246.068 77.2905 244.6 77.2952H244.493Z" fill="white"/>
<path d="M62.7295 65.5502H50.2836V77.9881H62.7295V65.5502Z" fill="#935B9E"/>
<path d="M25.3918 53.1124H12.9459V65.5503H25.3918V53.1124Z" fill="#8FBE54"/>
<path d="M50.2837 40.6744V53.1123H37.8377V65.5502H25.3918V77.9882H50.2837V65.5502H62.7296V40.6744H50.2837Z" fill="#36B6D4"/>
<path d="M37.8377 40.6744H25.3918V65.5503H37.8377V53.1123H50.2837V40.6744H37.8377Z" fill="#FACF53"/>
<path d="M51.6171 0.5V12.9379H64.063V25.3758H76.5089V0.5H51.6171Z" fill="#D94759"/>
<path d="M25.3918 28.2366V15.7986H0.5V77.9882H25.3918V65.5503H12.9459V53.1124H25.3918V40.6745H12.9459V28.2366H25.3918Z" fill="#4B4B99"/>
<path d="M37.8377 28.2366V15.7986H25.3918V28.2366H12.9459V40.6745H50.2836V28.2366H37.8377Z" fill="#E4803E"/>
<path d="M311.381 39.9814H313.834V54.5338H311.381V39.9814Z" fill="white"/>
<path d="M318.759 40.2835C318.909 40.4351 319.026 40.6159 319.102 40.8146C319.179 41.0134 319.213 41.2258 319.204 41.4385C319.201 41.6721 319.171 41.9046 319.115 42.1314C319.115 42.3447 318.937 42.6823 318.777 43.1265L317.746 45.9161H316.164L316.946 42.8955C316.665 42.8024 316.426 42.6137 316.27 42.3624C316.099 42.0917 316.013 41.7763 316.021 41.4562C316.01 41.2417 316.045 41.0272 316.125 40.8277C316.205 40.6282 316.327 40.4485 316.484 40.3013C316.791 40.0101 317.198 39.8478 317.622 39.8478C318.045 39.8478 318.452 40.0101 318.759 40.3013V40.2835Z" fill="white"/>
<path d="M330.583 50.0739H322.315C322.453 50.7901 322.86 51.4262 323.453 51.8508C324.107 52.3258 324.904 52.564 325.711 52.526C326.239 52.5449 326.764 52.4535 327.254 52.2577C327.744 52.0619 328.187 51.7659 328.556 51.3888L329.872 52.8991C329.397 53.4688 328.785 53.9089 328.094 54.1784C327.21 54.5011 326.271 54.6452 325.331 54.6025C324.391 54.5598 323.469 54.3311 322.618 53.9297C321.786 53.4989 321.095 52.8391 320.626 52.0284C320.166 51.1802 319.924 50.2305 319.924 49.2654C319.924 48.3004 320.166 47.3506 320.626 46.5025C321.076 45.6973 321.741 45.0329 322.547 44.5835C323.399 44.1338 324.348 43.8987 325.311 43.8987C326.275 43.8987 327.224 44.1338 328.076 44.5835C328.872 45.0344 329.525 45.6992 329.961 46.5025C330.424 47.3774 330.656 48.3558 330.636 49.3454C330.619 49.5231 330.601 49.7541 330.583 50.0739ZM323.329 46.5202C322.796 46.9756 322.444 47.6054 322.333 48.2971H328.272C328.19 47.6041 327.847 46.9685 327.312 46.5202C326.765 46.0348 326.051 45.78 325.32 45.8095C324.594 45.7909 323.886 46.0372 323.329 46.5025V46.5202ZM326.263 39.8571H329.143L325.729 42.5579H323.613L326.263 39.8571Z" fill="white"/>
<path d="M334.548 53.983C333.708 53.5325 333.012 52.8552 332.539 52.0284C332.059 51.1834 331.807 50.2283 331.807 49.2566C331.807 48.2848 332.059 47.3298 332.539 46.4847C333.023 45.6804 333.718 45.0232 334.548 44.5835C335.452 44.1126 336.462 43.8802 337.482 43.9083C338.428 43.8706 339.367 44.0853 340.202 44.5302C340.968 44.9191 341.591 45.5414 341.98 46.307L340.095 47.4087C339.83 46.9507 339.442 46.5755 338.975 46.3248C338.372 46.0136 337.687 45.8977 337.014 45.9932C336.342 46.0888 335.716 46.3909 335.224 46.8578C334.634 47.5108 334.307 48.3592 334.307 49.2388C334.307 50.1184 334.634 50.9668 335.224 51.6198C335.719 52.0882 336.348 52.3911 337.023 52.4866C337.699 52.5821 338.387 52.4655 338.993 52.1528C339.46 51.9021 339.847 51.5269 340.113 51.0689L341.998 52.1706C341.597 52.9279 340.978 53.5471 340.22 53.9474C339.392 54.3797 338.469 54.5995 337.535 54.5871C336.505 54.637 335.478 54.4294 334.548 53.983Z" fill="white"/>
<path d="M345.429 53.983C344.611 53.5216 343.935 52.8458 343.473 52.0284C343.01 51.178 342.767 50.225 342.767 49.2566C342.767 48.2881 343.01 47.3351 343.473 46.4847C343.954 45.7052 344.628 45.0627 345.429 44.619C346.324 44.1718 347.31 43.939 348.31 43.939C349.31 43.939 350.296 44.1718 351.19 44.619C352.009 45.0676 352.696 45.7232 353.181 46.5202C353.653 47.368 353.901 48.322 353.901 49.2921C353.901 50.2621 353.653 51.2162 353.181 52.064C352.709 52.8764 352.02 53.541 351.19 53.983C350.296 54.4302 349.31 54.663 348.31 54.663C347.31 54.663 346.324 54.4302 345.429 53.983ZM350.532 51.6731C351.117 51.0212 351.44 50.1765 351.44 49.301C351.44 48.4255 351.117 47.5808 350.532 46.9289C350.247 46.6298 349.901 46.3944 349.518 46.2382C349.135 46.0821 348.723 46.0086 348.31 46.0227C347.893 46.0083 347.479 46.0816 347.093 46.2377C346.707 46.3938 346.358 46.6293 346.069 46.9289C345.509 47.5925 345.202 48.4327 345.202 49.301C345.202 50.1692 345.509 51.0095 346.069 51.6731C346.67 52.2549 347.473 52.5803 348.31 52.5803C349.146 52.5803 349.949 52.2549 350.55 51.6731H350.532Z" fill="white"/>
<path d="M355.991 39.9814H358.444V54.5338H355.991V39.9814Z" fill="white"/>
<path d="M371.192 50.0739H362.96C363.101 50.7841 363.5 51.417 364.08 51.8508C364.745 52.3173 365.544 52.5543 366.356 52.526C366.884 52.5449 367.409 52.4536 367.899 52.2577C368.389 52.0619 368.832 51.7659 369.201 51.3888L370.517 52.8991C370.042 53.4688 369.43 53.909 368.739 54.1784C367.854 54.4983 366.914 54.6395 365.974 54.5937C365.034 54.548 364.112 54.3162 363.263 53.9119C362.419 53.4931 361.715 52.8389 361.236 52.0285C360.757 51.1839 360.511 50.2272 360.524 49.2566C360.499 48.2868 360.739 47.3284 361.218 46.4847C361.69 45.6859 362.381 45.0386 363.209 44.619C364.058 44.1694 365.004 43.9343 365.965 43.9343C366.926 43.9343 367.872 44.1694 368.721 44.619C369.524 45.0604 370.179 45.7276 370.606 46.538C371.084 47.407 371.318 48.3896 371.281 49.381C371.228 49.5231 371.21 49.7541 371.192 50.0739ZM363.938 46.5202C363.402 46.9725 363.048 47.6039 362.942 48.2971H368.899C368.804 47.7716 368.572 47.2803 368.227 46.8728C367.882 46.4653 367.435 46.1558 366.932 45.9757C366.429 45.7955 365.888 45.751 365.362 45.8466C364.837 45.9422 364.345 46.1746 363.938 46.5202Z" fill="white"/>
<path d="M388.67 39.9814V54.5338H386.323V53.1834C385.913 53.6684 385.395 54.0515 384.812 54.3028C384.183 54.551 383.514 54.6776 382.838 54.6759C381.889 54.6842 380.953 54.4519 380.118 54.0007C379.324 53.5633 378.671 52.9103 378.233 52.1173C377.778 51.2481 377.541 50.2818 377.541 49.301C377.541 48.3201 377.778 47.3539 378.233 46.4847C378.681 45.6995 379.332 45.049 380.118 44.6012C380.954 44.1556 381.89 43.9294 382.838 43.9438C383.49 43.9273 384.138 44.0484 384.741 44.2992C385.314 44.5247 385.822 44.8914 386.216 45.3653V40.0348L388.67 39.9814ZM384.723 52.1706C385.201 51.903 385.59 51.5016 385.843 51.0156C386.115 50.4817 386.256 49.8911 386.256 49.2921C386.256 48.6931 386.115 48.1025 385.843 47.5686C385.585 47.0862 385.197 46.686 384.723 46.4136C384.234 46.1508 383.687 46.0132 383.132 46.0132C382.576 46.0132 382.029 46.1508 381.54 46.4136C381.075 46.6915 380.694 47.0907 380.438 47.5686C380.166 48.1025 380.025 48.6931 380.025 49.2921C380.025 49.8911 380.166 50.4817 380.438 51.0156C380.689 51.4968 381.071 51.8972 381.54 52.1706C382.029 52.4334 382.576 52.571 383.132 52.571C383.687 52.571 384.234 52.4334 384.723 52.1706Z" fill="white"/>
<path d="M393.542 40.2835C393.691 40.4351 393.808 40.6159 393.884 40.8146C393.961 41.0134 393.996 41.2258 393.986 41.4385C393.991 41.6726 393.961 41.9062 393.897 42.1314C393.806 42.47 393.693 42.8024 393.559 43.1265L392.546 45.9161H390.946L391.728 42.8955C391.449 42.7985 391.211 42.6108 391.052 42.3624C390.887 42.0901 390.806 41.7746 390.821 41.4562C390.811 41.2434 390.845 41.0307 390.921 40.8318C390.998 40.6329 391.115 40.4522 391.266 40.3013C391.573 40.0101 391.98 39.8478 392.404 39.8478C392.827 39.8478 393.234 40.0101 393.542 40.3013V40.2835Z" fill="white"/>
<path d="M396.209 41.9004C396.074 41.7666 395.967 41.6075 395.893 41.4321C395.82 41.2568 395.783 41.0687 395.783 40.8787C395.783 40.6888 395.82 40.5007 395.893 40.3254C395.967 40.15 396.074 39.9909 396.209 39.8571C396.359 39.7183 396.535 39.6107 396.728 39.5405C396.92 39.4704 397.124 39.4391 397.329 39.4484C397.738 39.4304 398.139 39.5704 398.449 39.8393C398.594 39.9641 398.709 40.1199 398.786 40.2952C398.863 40.4705 398.9 40.6608 398.893 40.8521C398.902 41.0525 398.868 41.2524 398.795 41.4391C398.721 41.6258 398.609 41.795 398.467 41.936C398.318 42.0851 398.141 42.2016 397.945 42.2781C397.749 42.3546 397.539 42.3894 397.329 42.3802C397.119 42.3802 396.912 42.3377 396.719 42.2552C396.527 42.1727 396.353 42.052 396.209 41.9004ZM396.084 44.0504H398.556V54.5338H396.084V44.0504Z" fill="white"/>
<path d="M410.592 45.0988C411.017 45.5578 411.344 46.0988 411.552 46.6885C411.76 47.2783 411.845 47.9043 411.801 48.5281V54.5338H409.437V48.8479C409.491 48.0964 409.256 47.3526 408.779 46.769C408.544 46.5398 408.266 46.3603 407.961 46.2413C407.655 46.1222 407.329 46.066 407.001 46.076C406.608 46.0564 406.215 46.1189 405.848 46.2597C405.48 46.4004 405.146 46.6163 404.867 46.8934C404.313 47.5446 404.032 48.3853 404.085 49.2388V54.5693H401.631V44.086H403.978V45.4364C404.387 44.9468 404.913 44.568 405.507 44.3347C406.173 44.0863 406.877 43.9599 407.588 43.9616C408.698 43.9424 409.773 44.3494 410.592 45.0988Z" fill="white"/>
<path d="M425.119 44.0504V52.9346C425.119 56.6305 423.234 58.4606 419.465 58.4606C418.498 58.4691 417.534 58.3436 416.602 58.0875C415.788 57.8776 415.025 57.5027 414.362 56.9858L415.464 55.209C415.995 55.6202 416.598 55.9276 417.242 56.1152C417.93 56.3438 418.651 56.4579 419.376 56.4528C419.83 56.4803 420.286 56.4175 420.716 56.2681C421.147 56.1186 421.543 55.8855 421.883 55.5821C422.173 55.2582 422.394 54.8782 422.532 54.4656C422.669 54.0531 422.721 53.6166 422.683 53.1834V52.6503C422.257 53.1039 421.734 53.456 421.154 53.6809C420.524 53.923 419.855 54.0436 419.18 54.0363C418.24 54.0487 417.312 53.829 416.478 53.3966C415.693 52.9886 415.036 52.3742 414.575 51.6198C414.107 50.8094 413.861 49.8902 413.861 48.9545C413.861 48.0188 414.107 47.0996 414.575 46.2892C415.029 45.5295 415.689 44.9135 416.478 44.5124C417.315 44.0881 418.241 43.8688 419.18 43.8727C419.885 43.8708 420.584 43.9973 421.243 44.2459C421.852 44.4867 422.39 44.8779 422.807 45.3831V43.9971L425.119 44.0504ZM421.812 51.1578C422.108 50.8825 422.341 50.546 422.495 50.1717C422.648 49.7974 422.719 49.3942 422.701 48.99C422.719 48.5911 422.649 48.1929 422.496 47.8242C422.342 47.4555 422.108 47.1254 421.812 46.8578C421.17 46.3167 420.358 46.0198 419.518 46.0198C418.678 46.0198 417.866 46.3167 417.224 46.8578C416.931 47.1277 416.699 47.4582 416.545 47.8263C416.392 48.1944 416.32 48.5915 416.335 48.99C416.317 49.3942 416.388 49.7974 416.541 50.1717C416.695 50.546 416.928 50.8825 417.224 51.1578C417.873 51.7154 418.701 52.0206 419.557 52.0173C420.413 52.0141 421.238 51.7026 421.883 51.14L421.812 51.1578Z" fill="white"/>
<path d="M437.885 50.0739H429.652C429.79 50.7901 430.197 51.4262 430.79 51.8508C431.444 52.3258 432.241 52.564 433.048 52.526C433.576 52.5449 434.101 52.4535 434.591 52.2577C435.081 52.0619 435.524 51.7659 435.893 51.3888L437.209 52.8991C436.734 53.4688 436.122 53.9089 435.431 54.1784C434.547 54.5011 433.608 54.6452 432.668 54.6025C431.728 54.5598 430.806 54.3311 429.955 53.9297C429.103 53.5072 428.393 52.8467 427.91 52.0284C427.449 51.1802 427.208 50.2305 427.208 49.2654C427.208 48.3004 427.449 47.3506 427.91 46.5025C428.36 45.6973 429.025 45.0329 429.83 44.5835C430.682 44.1338 431.631 43.8987 432.595 43.8987C433.559 43.8987 434.508 44.1338 435.36 44.5835C436.155 45.0344 436.808 45.6992 437.244 46.5025C437.708 47.3774 437.94 48.3558 437.92 49.3454C437.885 49.5231 437.885 49.7541 437.885 50.0739ZM430.63 46.5202C430.098 46.9756 429.745 47.6054 429.635 48.2971H435.573C435.492 47.6041 435.148 46.9685 434.613 46.5202C434.066 46.0348 433.353 45.78 432.622 45.8095C431.896 45.7909 431.188 46.0372 430.63 46.5025V46.5202ZM433.564 39.8571H436.444L433.031 42.5579H430.915L433.564 39.8571Z" fill="white"/>
<path d="M449.086 45.0988C449.514 45.5461 449.845 46.0767 450.059 46.6575C450.273 47.2382 450.366 47.8568 450.33 48.4748V54.4805H447.877V48.7946C447.929 48.0462 447.701 47.3052 447.237 46.7157C447.002 46.4865 446.724 46.307 446.419 46.1879C446.113 46.0689 445.787 46.0127 445.459 46.0227C445.066 46.002 444.673 46.064 444.305 46.2048C443.938 46.3456 443.604 46.562 443.325 46.8401C442.771 47.4913 442.49 48.332 442.543 49.1855V54.516H440.089V44.0327H442.418V45.3831C442.835 44.9014 443.359 44.524 443.948 44.2814C444.614 44.0359 445.318 43.9096 446.028 43.9083C447.163 43.8934 448.26 44.3203 449.086 45.0988Z" fill="white"/>
<path d="M453.229 41.9004C453.094 41.7666 452.987 41.6075 452.913 41.4321C452.84 41.2568 452.803 41.0687 452.803 40.8787C452.803 40.6888 452.84 40.5007 452.913 40.3254C452.987 40.15 453.094 39.9909 453.229 39.8571C453.379 39.7183 453.555 39.6107 453.748 39.5405C453.94 39.4704 454.144 39.4391 454.349 39.4484C454.758 39.434 455.158 39.5735 455.469 39.8393C455.614 39.9641 455.729 40.1199 455.806 40.2952C455.883 40.4705 455.92 40.6608 455.913 40.8521C455.922 41.0541 455.886 41.2555 455.81 41.4426C455.733 41.6297 455.617 41.7979 455.469 41.936C455.325 42.0865 455.151 42.2041 454.957 42.2808C454.764 42.3575 454.556 42.3914 454.349 42.3802C454.139 42.3802 453.932 42.3377 453.739 42.2552C453.547 42.1727 453.373 42.052 453.229 41.9004ZM453.104 44.0504H455.558V54.5338H453.104V44.0504Z" fill="white"/>
<path d="M468.306 50.0739H460.074C460.215 50.7887 460.621 51.4237 461.212 51.8507C461.87 52.3171 462.663 52.5543 463.47 52.5259C463.997 52.5449 464.523 52.4535 465.012 52.2577C465.502 52.0619 465.946 51.7659 466.315 51.3888L467.63 52.8991C467.155 53.4688 466.544 53.9089 465.852 54.1784C464.967 54.4983 464.028 54.6395 463.087 54.5937C462.147 54.548 461.226 54.3162 460.376 53.9119C459.536 53.4881 458.833 52.8351 458.349 52.0284C457.87 51.1839 457.625 50.2272 457.638 49.2566C457.624 48.2881 457.863 47.3328 458.331 46.4847C458.789 45.6837 459.46 45.0255 460.269 44.5835C461.125 44.1158 462.086 43.8771 463.061 43.8905C464.016 43.8839 464.957 44.116 465.799 44.5657C466.594 45.0166 467.247 45.6815 467.684 46.4847C468.147 47.3596 468.379 48.338 468.359 49.3276C468.342 49.5231 468.324 49.7541 468.306 50.0739ZM461.052 46.5202C460.516 46.9725 460.162 47.6039 460.056 48.2971H466.012C465.918 47.7716 465.686 47.2803 465.341 46.8728C464.996 46.4652 464.549 46.1558 464.046 45.9756C463.543 45.7955 463.001 45.751 462.476 45.8466C461.95 45.9422 461.459 46.1745 461.052 46.5202Z" fill="white"/>
<path d="M476.467 43.9438V46.2715C476.278 46.2539 476.087 46.2539 475.898 46.2715C475.487 46.2457 475.075 46.3067 474.689 46.4506C474.303 46.5945 473.951 46.818 473.658 47.1066C473.372 47.4333 473.154 47.8137 473.016 48.2255C472.879 48.6374 472.825 49.0724 472.858 49.5053V54.5871H470.404V44.1037H472.733V45.6318C473.152 45.0471 473.718 44.5831 474.373 44.2867C475.029 43.9903 475.751 43.872 476.467 43.9438Z" fill="white"/>
<path d="M478.369 41.9004C478.234 41.7666 478.127 41.6075 478.054 41.4321C477.981 41.2568 477.943 41.0687 477.943 40.8787C477.943 40.6888 477.981 40.5007 478.054 40.3254C478.127 40.15 478.234 39.9909 478.369 39.8571C478.52 39.7183 478.696 39.6107 478.888 39.5405C479.081 39.4704 479.285 39.4391 479.489 39.4484C479.899 39.4304 480.3 39.5704 480.61 39.8393C480.755 39.9641 480.87 40.1199 480.947 40.2952C481.024 40.4705 481.06 40.6608 481.054 40.8521C481.062 41.0525 481.029 41.2524 480.955 41.4391C480.882 41.6258 480.77 41.795 480.627 41.936C480.479 42.0851 480.301 42.2016 480.105 42.2781C479.909 42.3546 479.7 42.3894 479.489 42.3802C479.28 42.3802 479.073 42.3377 478.88 42.2552C478.688 42.1727 478.514 42.052 478.369 41.9004ZM478.263 44.0504H480.716V54.5338H478.263V44.0504Z" fill="white"/>
<path d="M493.447 50.0739H485.215C485.355 50.7888 485.762 51.4237 486.353 51.8508C487.016 52.3197 487.816 52.557 488.628 52.526C489.155 52.5417 489.68 52.4488 490.169 52.2532C490.659 52.0575 491.102 51.7633 491.473 51.3888L492.789 52.8991C492.31 53.4649 491.7 53.9043 491.011 54.1784C490.123 54.5008 489.18 54.6432 488.237 54.5974C487.294 54.5517 486.369 54.3186 485.517 53.9119C484.677 53.4882 483.974 52.8351 483.49 52.0285C483.011 51.1839 482.766 50.2272 482.779 49.2566C482.765 48.2881 483.004 47.3328 483.472 46.4847C483.934 45.6876 484.604 45.0306 485.41 44.5835C486.262 44.1338 487.211 43.8987 488.175 43.8987C489.139 43.8987 490.088 44.1338 490.94 44.5835C491.742 45.0248 492.398 45.6921 492.824 46.5025C493.287 47.3774 493.52 48.3558 493.5 49.3454C493.482 49.5231 493.464 49.7541 493.447 50.0739ZM486.192 46.5202C485.656 46.9725 485.302 47.6039 485.197 48.2971H491.224C491.148 47.5731 490.798 46.9054 490.247 46.43C489.695 45.9546 488.983 45.7073 488.255 45.7384C487.526 45.718 486.815 45.9716 486.264 46.4492L486.192 46.5202Z" fill="white"/>
<path d="M311.505 64.9816C311.237 64.7091 311.087 64.3422 311.087 63.9599C311.087 63.5777 311.237 63.2108 311.505 62.9382C311.804 62.6591 312.199 62.5063 312.608 62.5118C313.017 62.5151 313.413 62.6595 313.728 62.9205C313.875 63.0444 313.993 63.1996 314.073 63.3748C314.153 63.55 314.193 63.7408 314.19 63.9333C314.191 64.1343 314.152 64.3335 314.076 64.5195C314 64.7055 313.887 64.8746 313.746 65.0172C313.44 65.2981 313.04 65.4541 312.625 65.4541C312.21 65.4541 311.811 65.2981 311.505 65.0172V64.9816ZM311.381 67.1316H313.834V77.615H311.381V67.1316Z" fill="white"/>
<path d="M325.871 68.1622C326.293 68.6265 326.616 69.1713 326.82 69.7638C327.025 70.3563 327.107 70.9841 327.063 71.6093V77.5972H324.627V71.9113C324.678 71.1686 324.45 70.4334 323.987 69.8502C323.753 69.6202 323.475 69.4402 323.169 69.321C322.863 69.2019 322.537 69.1462 322.209 69.1572C321.817 69.1331 321.424 69.1918 321.057 69.3296C320.689 69.4673 320.355 69.6811 320.075 69.9568C319.795 70.2758 319.581 70.6476 319.447 71.0505C319.312 71.4533 319.26 71.8789 319.293 72.3023V77.6328H316.839V67.1316H319.168V68.482C319.583 67.9978 320.107 67.62 320.697 67.3804C321.363 67.132 322.067 67.0056 322.778 67.0073C323.919 66.9827 325.026 67.396 325.871 68.1622Z" fill="white"/>
<path d="M332.61 66.5808V67.2027H335.49V69.1572H332.699V77.5972H330.245V69.1572H328.467V67.2027H330.245V66.5452C330.216 66.0577 330.288 65.5693 330.456 65.1108C330.625 64.6522 330.886 64.2332 331.223 63.88C331.92 63.3278 332.764 62.9943 333.65 62.9216C334.536 62.8489 335.424 63.0401 336.202 63.4713L335.508 65.2481C335.114 64.967 334.641 64.8177 334.157 64.8217C333.126 64.8928 332.61 65.4613 332.61 66.5808Z" fill="white"/>
<path d="M338.548 77.0464C337.703 76.6196 337.004 75.9517 336.539 75.1274C336.068 74.2796 335.82 73.3256 335.82 72.3555C335.82 71.3854 336.068 70.4314 336.539 69.5836C337.007 68.7723 337.698 68.1124 338.531 67.6824C339.419 67.2271 340.404 66.9897 341.402 66.9897C342.401 66.9897 343.385 67.2271 344.274 67.6824C345.106 68.1124 345.797 68.7723 346.265 69.5836C346.737 70.4314 346.984 71.3854 346.984 72.3555C346.984 73.3256 346.737 74.2796 346.265 75.1274C345.802 75.9425 345.11 76.6037 344.274 77.0286C343.389 77.4837 342.408 77.7226 341.413 77.7257C340.418 77.7288 339.436 77.496 338.548 77.0464ZM343.651 74.7365C344.236 74.0846 344.559 73.2399 344.559 72.3644C344.559 71.4889 344.236 70.6442 343.651 69.9923C343.361 69.695 343.012 69.4622 342.626 69.3091C342.24 69.1561 341.826 69.0861 341.411 69.1039C340.999 69.0841 340.587 69.1532 340.203 69.3064C339.82 69.4597 339.474 69.6936 339.189 69.9923C338.604 70.6442 338.28 71.4889 338.28 72.3644C338.28 73.2399 338.604 74.0846 339.189 74.7365C339.473 75.0374 339.818 75.274 340.202 75.4303C340.585 75.5866 340.997 75.659 341.411 75.6427C341.827 75.657 342.242 75.5838 342.628 75.4277C343.014 75.2715 343.362 75.0361 343.651 74.7365Z" fill="white"/>
<path d="M355.137 67.0072V69.3527H354.568C354.158 69.3333 353.747 69.3974 353.362 69.5409C352.977 69.6844 352.625 69.9045 352.328 70.1878C351.746 70.8534 351.452 71.7224 351.51 72.6043V77.6683H348.985V67.1316H351.332V68.6597C351.763 68.0715 352.342 67.6085 353.01 67.3181C353.679 67.0277 354.413 66.9204 355.137 67.0072Z" fill="white"/>
<path d="M373.29 68.1622C373.703 68.631 374.017 69.1773 374.216 69.7693C374.414 70.3612 374.493 70.9867 374.446 71.6092V77.5972H371.992V71.9113C372.049 71.1708 371.827 70.4359 371.37 69.8502C371.147 69.6057 370.871 69.4161 370.562 69.2959C370.254 69.1757 369.922 69.1282 369.592 69.1572C369.223 69.1397 368.855 69.204 368.514 69.3453C368.173 69.4866 367.867 69.7014 367.619 69.9745C367.084 70.6211 366.817 71.4475 366.872 72.2844V77.615H364.454V71.9291C364.508 71.1861 364.293 70.4484 363.849 69.8502C363.621 69.6129 363.343 69.4281 363.036 69.3084C362.729 69.1888 362.4 69.1372 362.071 69.1572C361.701 69.1385 361.331 69.2004 360.988 69.3384C360.644 69.4765 360.334 69.6874 360.08 69.9568C359.551 70.6194 359.291 71.4567 359.351 72.3022V77.6327H356.897V67.1316H359.226V68.4642C359.629 67.9997 360.134 67.6348 360.702 67.3981C361.319 67.1332 361.987 67.0059 362.658 67.025C363.381 67.005 364.098 67.1509 364.756 67.4514C365.349 67.747 365.848 68.2024 366.196 68.7663C366.636 68.2054 367.211 67.7652 367.867 67.487C368.576 67.1658 369.348 67.0079 370.126 67.025C370.703 66.9872 371.282 67.0687 371.826 67.2644C372.371 67.46 372.869 67.7656 373.29 68.1622Z" fill="white"/>
<path d="M384.829 68.1266C385.268 68.5587 385.605 69.0823 385.817 69.6597C386.029 70.2372 386.111 70.8544 386.056 71.4671V77.5972H383.745V76.3356C383.436 76.8079 382.989 77.1739 382.465 77.384C381.825 77.635 381.142 77.7558 380.456 77.7393C379.746 77.7554 379.042 77.6159 378.393 77.3307C377.838 77.0978 377.362 76.7089 377.024 76.2113C376.706 75.7323 376.539 75.1691 376.544 74.5943C376.535 74.1631 376.625 73.7356 376.807 73.3444C376.988 72.9533 377.257 72.6089 377.593 72.3377C378.6 71.6932 379.802 71.4227 380.989 71.5737H383.709V71.4138C383.739 71.0874 383.695 70.7585 383.581 70.4511C383.467 70.1437 383.286 69.8656 383.051 69.6369C382.492 69.2108 381.797 69.0025 381.096 69.0506C380.493 69.047 379.893 69.137 379.318 69.3171C378.789 69.477 378.299 69.743 377.878 70.0989L376.917 68.3221C377.508 67.8747 378.177 67.5431 378.891 67.3448C379.69 67.1244 380.516 67.0168 381.345 67.025C382.603 66.9479 383.845 67.3405 384.829 68.1266ZM382.607 75.5361C383.074 75.2622 383.432 74.8354 383.62 74.3278V73.1196H381.078C379.673 73.1196 378.962 73.5815 378.962 74.5055C378.953 74.7139 378.997 74.9211 379.09 75.1077C379.184 75.2942 379.323 75.4539 379.495 75.5716C379.931 75.8614 380.45 75.9988 380.971 75.9625C381.545 75.973 382.111 75.8255 382.607 75.5361Z" fill="white"/>
<path d="M395.213 77.0286C394.905 77.2788 394.547 77.4605 394.164 77.5617C393.738 77.6915 393.293 77.7515 392.848 77.7394C392.367 77.7741 391.884 77.7135 391.426 77.5611C390.968 77.4086 390.545 77.1673 390.181 76.8509C389.855 76.499 389.603 76.0845 389.441 75.6325C389.279 75.1805 389.21 74.7004 389.239 74.2212V69.175H387.461V67.2205H389.239V64.8217H391.657V67.2205H394.466V69.175H391.657V74.1501C391.638 74.573 391.77 74.9889 392.03 75.3229C392.171 75.4639 392.341 75.5721 392.529 75.6397C392.716 75.7073 392.916 75.7326 393.115 75.7138C393.607 75.7367 394.092 75.5858 394.484 75.2873L395.213 77.0286Z" fill="white"/>
<path d="M396.991 64.9816C396.856 64.8478 396.749 64.6886 396.676 64.5133C396.603 64.3379 396.565 64.1499 396.565 63.9599C396.565 63.77 396.603 63.5819 396.676 63.4065C396.749 63.2312 396.856 63.072 396.991 62.9382C397.295 62.6564 397.696 62.5035 398.111 62.5118C398.516 62.5085 398.908 62.6539 399.213 62.9205C399.361 63.0444 399.479 63.1996 399.559 63.3748C399.639 63.55 399.679 63.7407 399.676 63.9333C399.677 64.1343 399.638 64.3335 399.561 64.5195C399.485 64.7054 399.373 64.8746 399.231 65.0171C399.086 65.1649 398.911 65.2807 398.718 65.3572C398.525 65.4336 398.318 65.4691 398.111 65.4614C397.901 65.4624 397.694 65.4203 397.501 65.3378C397.308 65.2553 397.135 65.134 396.991 64.9816ZM396.991 67.1316H399.445V77.615H396.991V67.1316Z" fill="white"/>
<path d="M412.566 67.1316V81.3464H410.112V76.3357C409.692 76.8049 409.172 77.1744 408.591 77.4173C408.01 77.6601 407.381 77.7702 406.752 77.7394C405.828 77.7412 404.918 77.5154 404.103 77.0819C403.267 76.6391 402.58 75.9591 402.129 75.1274C401.661 74.2609 401.428 73.2868 401.454 72.3022C401.434 71.324 401.667 70.3572 402.129 69.4948C402.602 68.7157 403.286 68.087 404.103 67.6824C404.82 67.2968 405.613 67.0703 406.426 67.0182C407.239 66.966 408.053 67.0896 408.814 67.3804C409.396 67.6269 409.908 68.0111 410.308 68.4998V67.1316H412.566ZM409.259 74.7365C409.844 74.0846 410.167 73.2399 410.167 72.3644C410.167 71.4889 409.844 70.6442 409.259 69.9923C408.968 69.6954 408.619 69.4616 408.233 69.3057C407.848 69.1498 407.434 69.075 407.019 69.0861C406.606 69.0754 406.195 69.1503 405.812 69.3063C405.43 69.4623 405.084 69.6959 404.796 69.9923C404.211 70.6442 403.888 71.4889 403.888 72.3644C403.888 73.2399 404.211 74.0846 404.796 74.7365C405.082 75.0356 405.427 75.271 405.81 75.4271C406.194 75.5833 406.605 75.6568 407.019 75.6427C407.434 75.6538 407.848 75.579 408.233 75.4231C408.619 75.2672 408.968 75.0334 409.259 74.7365Z" fill="white"/>
<path d="M425.634 67.1316V77.615H423.305V76.2823C422.903 76.7519 422.398 77.1227 421.829 77.3662C421.229 77.6266 420.581 77.7598 419.927 77.7571C419.309 77.8146 418.685 77.7331 418.103 77.5185C417.52 77.3039 416.993 76.9617 416.56 76.517C416.127 76.0723 415.799 75.5363 415.6 74.9484C415.401 74.3605 415.337 73.7356 415.411 73.1196V67.1316H417.864V72.782C417.796 73.543 418.025 74.3011 418.505 74.8964C418.734 75.1327 419.011 75.3169 419.318 75.4365C419.625 75.556 419.954 75.6082 420.283 75.5894C420.668 75.6093 421.052 75.5467 421.411 75.4057C421.77 75.2647 422.094 75.0487 422.363 74.772C422.64 74.4547 422.852 74.0857 422.986 73.6862C423.121 73.2868 423.175 72.8647 423.145 72.4444V67.1138L425.634 67.1316Z" fill="white"/>
<path d="M438.365 73.1551H430.15C430.285 73.8679 430.685 74.503 431.27 74.932C431.934 75.4009 432.734 75.6382 433.546 75.6072C434.074 75.6261 434.599 75.5347 435.089 75.3389C435.579 75.1431 436.022 74.8471 436.391 74.47L437.707 75.9803C437.232 76.55 436.62 76.9902 435.929 77.2596C435.044 77.5795 434.104 77.7207 433.164 77.6749C432.224 77.6292 431.302 77.3974 430.453 76.9931C429.606 76.5802 428.896 75.9326 428.408 75.1274C427.941 74.2813 427.696 73.3307 427.696 72.3644C427.696 71.3981 427.941 70.4476 428.408 69.6014C428.853 68.7928 429.519 68.1273 430.328 67.6824C431.186 67.2229 432.146 66.9847 433.12 66.9895C434.075 66.979 435.017 67.2114 435.858 67.6647C436.657 68.1109 437.311 68.777 437.742 69.5837C438.205 70.4586 438.438 71.437 438.418 72.4266C438.413 72.6702 438.395 72.9134 438.365 73.1551ZM431.11 69.6014C430.585 70.0596 430.238 70.6891 430.133 71.3783H436.107C436.03 70.6575 435.683 69.9924 435.136 69.5175C434.588 69.0425 433.88 68.7931 433.155 68.8196C432.421 68.8016 431.705 69.0546 431.146 69.5304L431.11 69.6014Z" fill="white"/>
<path d="M255.925 28.9295C255.925 25.6307 257.237 22.4671 259.571 20.1346C261.905 17.802 265.071 16.4916 268.371 16.4916V19.1568C265.797 19.1568 263.327 20.179 261.507 21.9984C259.686 23.8178 258.664 26.2854 258.664 28.8584C258.664 31.4314 259.686 33.8991 261.507 35.7185C263.327 37.5378 265.797 38.56 268.371 38.56V41.3674C265.071 41.3674 261.905 40.057 259.571 37.7244C257.237 35.3919 255.925 32.2282 255.925 28.9295Z" fill="white"/>
<path d="M272.319 34.2601C271.193 35.2392 269.757 35.7871 268.265 35.8059C267.69 35.8675 267.109 35.8093 266.558 35.6351C266.007 35.4609 265.499 35.1743 265.064 34.7936C264.63 34.4129 264.279 33.9462 264.034 33.4232C263.789 32.9001 263.656 32.332 263.642 31.7547C263.64 30.9186 263.9 30.1028 264.384 29.4212C264.869 28.7395 265.554 28.226 266.345 27.9523C265.723 27.1606 265.379 26.1866 265.367 25.1804C265.397 24.6676 265.532 24.1664 265.762 23.707C265.992 23.2476 266.313 22.8395 266.705 22.5074C267.097 22.1753 267.552 21.926 268.043 21.7747C268.535 21.6233 269.051 21.573 269.563 21.6267C270.057 21.5795 270.556 21.6364 271.027 21.7938C271.499 21.9511 271.932 22.2054 272.298 22.5402C272.665 22.875 272.958 23.283 273.157 23.7377C273.357 24.1924 273.459 24.6839 273.456 25.1804C273.42 26.0055 273.119 26.797 272.597 27.4372C272.075 28.0774 271.36 28.5322 270.558 28.7341L272.336 30.5109C272.799 29.8002 273.243 29.0006 273.688 28.1477L275.91 29.3737C275.38 30.3873 274.786 31.3665 274.132 32.3055L276.088 34.2601L273.848 35.8237L272.319 34.2601ZM270.541 32.4832L267.891 29.8002C267.531 29.9445 267.22 30.1882 266.993 30.5028C266.766 30.8174 266.634 31.19 266.611 31.577C266.611 32.5543 267.411 33.1939 268.549 33.1939C269.283 33.1694 269.986 32.8933 270.541 32.4121M270.701 25.1093C270.711 24.937 270.685 24.7644 270.623 24.6032C270.561 24.4419 270.466 24.2958 270.343 24.1746C270.22 24.0533 270.072 23.9599 269.91 23.9004C269.748 23.841 269.575 23.817 269.403 23.83C269.218 23.8218 269.035 23.8529 268.863 23.9213C268.692 23.9896 268.537 24.0937 268.409 24.2265C268.282 24.3593 268.184 24.5179 268.122 24.6915C268.06 24.8652 268.036 25.05 268.051 25.2337C268.057 25.5703 268.133 25.902 268.274 26.2078C268.415 26.5136 268.617 26.787 268.869 27.0105C270.061 26.5486 270.647 26.0333 270.647 25.2337" fill="white"/>
<path d="M283.2 28.9295C283.2 32.2282 281.889 35.3919 279.554 37.7244C277.22 40.057 274.055 41.3674 270.754 41.3674V38.7021C273.329 38.7021 275.798 37.68 277.618 35.8606C279.439 34.0412 280.462 31.5736 280.462 29.0006C280.462 26.4275 279.439 23.9599 277.618 22.1405C275.798 20.3211 273.329 19.299 270.754 19.299V16.4916C274.055 16.4916 277.22 17.802 279.554 20.1346C281.889 22.4671 283.2 25.6307 283.2 28.9295Z" fill="white"/>
</g>
<defs>
<clipPath id="clip0_1_423">
<rect width="493" height="93" fill="white" transform="translate(0.5 0.5)"/>
</clipPath>
</defs>
</svg>
