<svg width="17" height="12" viewBox="0 0 17 12" fill="none" xmlns="http://www.w3.org/2000/svg">
<path fill-rule="evenodd" clip-rule="evenodd" d="M3.85928 8.68282C2.71692 7.7013 1.90098 6.57945 1.51819 6C1.90098 5.42055 2.71692 4.29869 3.85928 3.31721C5.03869 2.30389 6.49498 1.5 8.13318 1.5C9.7714 1.5 11.2278 2.30389 12.4071 3.31721C13.5495 4.29869 14.3655 5.42055 14.7483 6C14.3655 6.57945 13.5495 7.7013 12.4071 8.68282C11.2278 9.69615 9.7714 10.5 8.13318 10.5C6.49498 10.5 5.03869 9.69615 3.85928 8.68282ZM8.13318 0C5.99383 0 4.20106 1.04597 2.88177 2.17946C1.55769 3.31707 0.638856 4.6032 0.231081 5.22735C-0.0770269 5.69888 -0.0770269 6.30112 0.231081 6.77265C0.638856 7.3968 1.55769 8.6829 2.88177 9.82058C4.20106 10.9541 5.99383 12 8.13318 12C10.2726 12 12.0654 10.9541 13.3847 9.82058C14.7087 8.6829 15.6276 7.3968 16.0353 6.77265C16.3434 6.30112 16.3434 5.69888 16.0353 5.22735C15.6276 4.6032 14.7087 3.31707 13.3847 2.17946C12.0654 1.04597 10.2726 0 8.13318 0ZM6.63318 6C6.63318 5.17155 7.3048 4.5 8.13318 4.5C8.96163 4.5 9.63318 5.17155 9.63318 6C9.63318 6.82845 8.96163 7.5 8.13318 7.5C7.3048 7.5 6.63318 6.82845 6.63318 6ZM8.13318 3C6.47635 3 5.13321 4.34314 5.13321 6C5.13321 7.65683 6.47635 9 8.13318 9C9.79008 9 11.1332 7.65683 11.1332 6C11.1332 4.34314 9.79008 3 8.13318 3Z" fill="#697077"/>
</svg>
