<svg width="124" height="40" viewBox="0 0 124 40" fill="none" xmlns="http://www.w3.org/2000/svg">
<path d="M56.6724 25.192H45.4051C45.7107 27.4822 47.5593 29.4212 50.6607 29.4212C51.9075 29.392 53.1309 29.0759 54.2356 28.4975C54.5386 28.3403 54.876 28.2614 55.2173 28.2678C55.5585 28.2742 55.8928 28.3658 56.1896 28.5342C56.4864 28.7026 56.7364 28.9425 56.9168 29.2321C57.0971 29.5216 57.2022 29.8517 57.2224 30.1922C57.2224 32.345 52.5704 33.2458 50.1489 33.2458C44.5878 33.2458 40.3941 29.5051 40.3941 23.6499C40.3574 22.4307 40.5616 21.2163 40.9948 20.076C41.4281 18.9357 42.0819 17.8919 42.919 17.0043C43.7561 16.1167 44.7601 15.4026 45.8735 14.903C46.9869 14.4033 48.1879 14.1278 49.4079 14.0923H49.8433C51.7454 14.0471 53.6101 14.6246 55.1533 15.7368C56.6965 16.849 57.8336 18.4349 58.3912 20.2528C58.7035 21.1426 58.8811 22.0741 58.9182 23.0163C58.9062 23.6015 58.6635 24.1583 58.243 24.5657C57.8225 24.9731 57.2581 25.1981 56.6724 25.192ZM49.7975 17.9016C48.6701 17.8688 47.5733 18.2706 46.7343 19.0238C45.8953 19.777 45.3784 20.8239 45.2906 21.9476H54.3349C54.3123 21.392 54.1803 20.8464 53.9465 20.3419C53.7127 19.8374 53.3816 19.3839 52.9722 19.0074C52.5628 18.6309 52.0832 18.3387 51.5607 18.1477C51.0382 17.9566 50.4832 17.8704 49.9273 17.894L49.7975 17.9016Z" fill="white"/>
<path d="M72.7674 33.2152C71.6746 33.2223 70.5953 32.9733 69.6162 32.488C68.6372 32.0028 67.7856 31.2949 67.1299 30.4212V37.6047C67.1299 38.2404 66.8772 38.8501 66.4274 39.2997C65.9776 39.7492 65.3675 40.0017 64.7314 40.0017C64.0952 40.0017 63.4851 39.7492 63.0353 39.2997C62.5855 38.8501 62.3328 38.2404 62.3328 37.6047V16.6267C62.3428 15.9963 62.6026 15.3956 63.055 14.9563C63.5075 14.517 64.1158 14.2749 64.7466 14.2831C65.3674 14.2871 65.9615 14.5353 66.4005 14.9739C66.8394 15.4126 67.0878 16.0064 67.0918 16.6267V16.7946C67.7547 15.9314 68.6087 15.2334 69.5867 14.7553C70.5648 14.2772 71.6404 14.0319 72.7292 14.0388C77.4194 14.0388 80.8187 17.5122 80.8187 23.5964C80.8187 29.6807 77.4576 33.2152 72.7674 33.2152ZM71.2396 18.329C70.4399 18.3459 69.6541 18.542 68.9402 18.9026C68.2263 19.2633 67.6025 19.7795 67.1147 20.4131V26.8714C67.6104 27.4963 68.236 28.0063 68.9482 28.3661C69.6603 28.7259 70.4421 28.927 71.2396 28.9555C73.9973 28.9555 75.8229 26.7951 75.8229 23.6117C75.8229 20.4284 74.0125 18.3214 71.2549 18.3214L71.2396 18.329Z" fill="white"/>
<path d="M91.093 33.2153C88.7173 33.2153 84.8979 32.4519 83.7674 30.803C83.5428 30.5093 83.4219 30.1496 83.4236 29.78C83.4334 29.2526 83.6474 28.7496 84.0206 28.3766C84.3939 28.0036 84.8972 27.7897 85.425 27.7799C85.7713 27.7725 86.1127 27.8624 86.4104 28.0395C87.9042 28.9269 89.5938 29.4329 91.3298 29.5128C93.4075 29.5128 94.3853 28.6807 94.3853 27.5509C94.3853 24.4973 83.5305 26.9784 83.5305 19.8025C83.5305 16.7489 86.2118 14.0618 91.0166 14.0618C93.3999 14.0618 96.654 14.8252 97.67 16.2909C97.8682 16.5639 97.9751 16.8925 97.9756 17.2299C97.9626 17.5511 97.8679 17.8638 97.7005 18.1384C97.5331 18.413 97.2984 18.6405 97.0187 18.7993C96.739 18.9582 96.4233 19.0433 96.1016 19.0465C95.7799 19.0497 95.4626 18.971 95.1798 18.8177C93.9217 18.1052 92.5009 17.7292 91.0548 17.7261C89.3131 17.7261 88.1826 18.4894 88.1826 19.5353C88.1826 22.2606 98.9992 19.9933 98.9992 27.3601C98.9992 30.6884 96.1652 33.2153 91.093 33.2153Z" fill="white"/>
<path d="M107.708 9.67222C107.723 10.2428 107.568 10.805 107.262 11.2873C106.957 11.7696 106.515 12.1503 105.992 12.3809C105.47 12.6115 104.891 12.6817 104.328 12.5825C103.766 12.4832 103.245 12.2191 102.834 11.8237C102.422 11.4282 102.137 10.9193 102.015 10.3617C101.893 9.80399 101.94 9.22274 102.15 8.69181C102.36 8.16088 102.722 7.70424 103.192 7.37994C103.663 7.05565 104.218 6.87835 104.789 6.87058C105.164 6.86144 105.536 6.92609 105.885 7.06081C106.234 7.19553 106.554 7.39769 106.825 7.65575C107.096 7.9138 107.313 8.22268 107.465 8.56475C107.616 8.90681 107.699 9.27536 107.708 9.64932V9.67222ZM104.828 32.9938C104.516 32.9948 104.207 32.9344 103.919 32.8159C103.631 32.6974 103.369 32.5233 103.148 32.3034C102.928 32.0836 102.752 31.8223 102.633 31.5347C102.514 31.2471 102.452 30.9387 102.452 30.6273V16.6267C102.462 15.9964 102.722 15.3957 103.174 14.9564C103.627 14.5171 104.235 14.2749 104.866 14.2831H104.912C105.532 14.2851 106.127 14.5329 106.565 14.9722C107.003 15.4115 107.249 16.0065 107.249 16.6267V30.6121C107.249 31.2424 106.999 31.8471 106.554 32.2935C106.109 32.74 105.504 32.9918 104.874 32.9938H104.828Z" fill="white"/>
<path d="M26.7359 27.9478H21.3887V33.2916H26.7359V27.9478Z" fill="#935B9E"/>
<path d="M10.6943 22.604H5.34717V27.9478H10.6943V22.604Z" fill="#8FBE54"/>
<path d="M21.3887 17.2604V22.6042H16.0415V27.9479H10.6943V33.2916H21.3887V27.9479H26.7359V17.2604H21.3887Z" fill="#36B6D4"/>
<path d="M16.0415 17.2604H10.6943V27.9479H16.0415V22.6042H21.3887V17.2604H16.0415Z" fill="#FACF53"/>
<path d="M21.9617 6.10352e-05V5.3438H27.3088V10.6875H32.656V6.10352e-05H21.9617Z" fill="#D94759"/>
<path d="M10.6944 11.9166V6.5729H0V33.2916H10.6944V27.9479H5.34718V22.6041H10.6944V17.2604H5.34718V11.9166H10.6944Z" fill="#4B4B99"/>
<path d="M16.0415 11.9166V6.5729H10.6943V11.9166H5.34717V17.2604H21.3887V11.9166H16.0415Z" fill="#E4803E"/>
<path d="M107.708 5.34374C107.708 3.92649 108.272 2.56729 109.275 1.56515C110.277 0.563 111.638 0 113.056 0V1.14509C111.95 1.14509 110.889 1.58423 110.106 2.3659C109.324 3.14758 108.885 4.20775 108.885 5.31321C108.885 6.41866 109.324 7.47884 110.106 8.26051C110.889 9.04219 111.95 9.48133 113.056 9.48133V10.6875C111.638 10.6875 110.277 10.1245 109.275 9.12234C108.272 8.12019 107.708 6.76099 107.708 5.34374Z" fill="white"/>
<path d="M116.783 5.43674C116.3 5.85742 115.683 6.0928 115.042 6.10089C114.795 6.12735 114.545 6.10237 114.308 6.02751C114.072 5.95265 113.853 5.82954 113.667 5.66597C113.48 5.5024 113.329 5.30191 113.224 5.07719C113.119 4.85246 113.062 4.60838 113.056 4.36036C113.055 4.00114 113.166 3.65066 113.374 3.3578C113.583 3.06494 113.877 2.84432 114.217 2.7267C113.95 2.38657 113.802 1.96809 113.797 1.53581C113.81 1.31551 113.868 1.10017 113.966 0.902792C114.065 0.705416 114.203 0.530095 114.371 0.387409C114.54 0.244723 114.736 0.137631 114.947 0.0725974C115.158 0.00756399 115.38 -0.0140622 115.599 0.00902312C115.812 -0.0112438 116.026 0.0132109 116.229 0.080811C116.431 0.148411 116.617 0.257656 116.775 0.401504C116.932 0.545352 117.058 0.720609 117.144 0.915979C117.229 1.11135 117.273 1.3225 117.272 1.53581C117.257 1.89031 117.127 2.23034 116.903 2.5054C116.678 2.78046 116.371 2.97586 116.027 3.06259L116.791 3.82598C116.99 3.52062 117.181 3.1771 117.371 2.81067L118.326 3.33741C118.098 3.77288 117.843 4.19358 117.562 4.59701L118.403 5.43674L117.44 6.10852L116.783 5.43674ZM116.019 4.67335L114.881 3.52062C114.727 3.58262 114.593 3.68732 114.495 3.82249C114.398 3.95767 114.341 4.11774 114.331 4.28402C114.331 4.70388 114.675 4.9787 115.164 4.9787C115.479 4.96814 115.781 4.84954 116.019 4.64281M116.088 1.50527C116.093 1.43124 116.081 1.3571 116.055 1.28782C116.028 1.21855 115.987 1.15575 115.934 1.10367C115.882 1.05159 115.818 1.01143 115.749 0.985889C115.679 0.960353 115.605 0.950034 115.531 0.955629C115.451 0.9521 115.372 0.96547 115.299 0.994847C115.225 1.02422 115.159 1.06893 115.104 1.126C115.049 1.18306 115.007 1.25117 114.98 1.32578C114.954 1.40039 114.943 1.4798 114.95 1.55871C114.953 1.70332 114.985 1.84582 115.046 1.97722C115.106 2.10862 115.193 2.22605 115.301 2.3221C115.813 2.12362 116.065 1.90223 116.065 1.55871" fill="white"/>
<path d="M123.75 5.3438C123.75 6.76105 123.187 8.12025 122.184 9.1224C121.181 10.1245 119.821 10.6875 118.403 10.6875V9.54246C119.509 9.54246 120.57 9.10332 121.352 8.32164C122.134 7.53997 122.574 6.47979 122.574 5.37434C122.574 4.26889 122.134 3.20871 121.352 2.42703C120.57 1.64536 119.509 1.20622 118.403 1.20622V6.10352e-05C119.821 6.10352e-05 121.181 0.563061 122.184 1.56521C123.187 2.56735 123.75 3.92655 123.75 5.3438Z" fill="white"/>
</svg>
