<svg width="8" height="11" viewBox="0 0 8 11" fill="none" xmlns="http://www.w3.org/2000/svg">
<path fill-rule="evenodd" clip-rule="evenodd" d="M4 0.774193C3.07359 0.774193 2.32258 1.5252 2.32258 2.45161C2.32258 3.37803 3.07359 4.12903 4 4.12903C4.92641 4.12903 5.67742 3.37803 5.67742 2.45161C5.67742 1.5252 4.92641 0.774193 4 0.774193ZM1.54839 2.45161C1.54839 1.09762 2.64601 0 4 0C5.35399 0 6.45161 1.09762 6.45161 2.45161C6.45161 3.8056 5.35399 4.90323 4 4.90323C2.64601 4.90323 1.54839 3.8056 1.54839 2.45161Z" fill="#C5C7FF"/>
<path fill-rule="evenodd" clip-rule="evenodd" d="M1.63735 7.0053C1.04103 7.34605 0.774194 7.7578 0.774194 8.12903C0.774194 8.50026 1.04103 8.91201 1.63735 9.25276C2.22271 9.58726 3.05721 9.80645 4 9.80645C4.52148 9.80645 5.01224 9.73931 5.44699 9.62131C5.65331 9.56531 5.86597 9.68717 5.92197 9.89349C5.97797 10.0998 5.85611 10.3125 5.64978 10.3685C5.1459 10.5052 4.58676 10.5806 4 10.5806C2.94744 10.5806 1.97549 10.3377 1.25324 9.92495C0.541936 9.51849 0 8.89799 0 8.12903C0 7.36008 0.541936 6.73957 1.25324 6.33311C1.97549 5.92039 2.94744 5.67742 4 5.67742C5.05256 5.67742 6.02451 5.92039 6.74676 6.33311C7.45807 6.73957 8 7.36008 8 8.12903C8 8.3659 7.94719 8.59281 7.85206 8.80409C7.76429 8.99902 7.53511 9.0859 7.34017 8.99813C7.14523 8.91036 7.05836 8.68118 7.14613 8.48624C7.19954 8.3676 7.22581 8.2486 7.22581 8.12903C7.22581 7.7578 6.95897 7.34605 6.36265 7.0053C5.7773 6.67081 4.94279 6.45161 4 6.45161C3.05721 6.45161 2.22271 6.67081 1.63735 7.0053Z" fill="#C5C7FF"/>
</svg>
